<?xml version="1.0" encoding="UTF-8"?> <svg xmlns="http://www.w3.org/2000/svg" height="512" viewBox="0 0 512 512" width="512"><g><g fill="#57a4ff"><path d="m48 336h56v64h-56z"></path><path d="m191.22 248.9.56-.79.57.77 25.89 29.46z"></path><path d="m240.79 304-22.55-25.66 23.55 25.66z"></path><path d="m48 48v256h23l25-32 55-79.47 36.22 49.37 4.56 6.21 96.22-136.11 152 192h24v-256zm112 104a32 32 0 1 1 32-32 32 32 0 0 1 -32 32z"></path><path d="m496 416v16h-158.39a80 80 0 1 1 158.39-16z"></path><path d="m191.22 248.9.56-.79.57.77 25.89 29.46z"></path><path d="m240.79 304-22.55-25.66 23.55 25.66z"></path><path d="m48 48v256h23l25-32 55-79.47 36.22 49.37 4.56 6.21 96.22-136.11 152 192h24v-256zm112 104a32 32 0 1 1 32-32 32 32 0 0 1 -32 32z"></path><path d="m48 336h56v64h-56z"></path><path d="m496 416a80 80 0 1 1 -80-80 79.589 79.589 0 0 1 80 80z"></path><path d="m218.24 278.34-27.02-29.44.56-.79.57.77z"></path><path d="m218.24 278.34-27.02-29.44.56-.79.57.77z"></path></g><g fill="#004fac"><path d="m461.657 370.343a8 8 0 0 0 -11.314 0l-34.343 34.343-34.343-34.343a8 8 0 0 0 -11.314 11.314l34.343 34.343-34.343 34.343a8 8 0 0 0 11.314 11.314l34.343-34.343 34.343 34.343a8 8 0 0 0 11.314-11.314l-34.343-34.343 34.343-34.343a8 8 0 0 0 0-11.314z"></path><path d="m496 8h-480a8 8 0 0 0 -8 8v416a8 8 0 0 0 8 8h315.33a88 88 0 0 0 172.67-24v-400a8 8 0 0 0 -8-8zm-80 480a72 72 0 1 1 72-72 72.083 72.083 0 0 1 -72 72zm72-122.54a87.974 87.974 0 0 0 -160 50.54c0 2.7.13 5.36.37 8h-304.37v-400h464z"></path><path d="m464 40h-416a8 8 0 0 0 -8 8v256a8 8 0 0 0 8 8h416a8 8 0 0 0 8-8v-256a8 8 0 0 0 -8-8zm-376.29 256 64.62-90.19 71.53 90.19zm156.58 0-40.58-51.16 84.63-119.48 134.51 170.64zm211.71 0h-12.77l-148.95-188.95a7.99 7.99 0 0 0 -12.81.33l-88.12 124.4-35.08-44.22a8.127 8.127 0 0 0 -6.47-3.03 7.983 7.983 0 0 0 -6.3 3.34l-77.47 108.13h-12.03v-240h400z"></path><path d="m160 160a40 40 0 1 0 -40-40 40.045 40.045 0 0 0 40 40zm0-64a24 24 0 1 1 -24 24 24.028 24.028 0 0 1 24-24z"></path><path d="m104 328h-56a8 8 0 0 0 -8 8v64a8 8 0 0 0 8 8h56a8 8 0 0 0 8-8v-64a8 8 0 0 0 -8-8zm-8 64h-40v-48h40z"></path><path d="m224 328h-88a8 8 0 0 0 0 16h88a8 8 0 0 0 0-16z"></path><path d="m224 360h-88a8 8 0 0 0 0 16h88a8 8 0 0 0 0-16z"></path><path d="m176 392h-40a8 8 0 0 0 0 16h40a8 8 0 0 0 0-16z"></path></g></g></svg> 